HIERARCHY
ROOT Hips
{
	OFFSET 0.00000 0.00000 0.00000
	CHANNELS 6 Xposition Yposition Zposition Yrotation Zrotation Xrotation 
	JOINT Lumbar
	{
		OFFSET 0 0 0
		CHANNELS 3 Zrotation Xrotation Yrotation
		JOINT Neck
		{
			OFFSET 0.00 0.2701 0.00
			CHANNELS 3 Zrotation Xrotation Yrotation
			End Site
			{
				OFFSET 0.00 0.1379 0.00
			}
		}
		JOINT RightShoulder
		{
			OFFSET 0.0119 0.2289 0.1181
			CHANNELS 3 Zrotation Xrotation Yrotation
			JOINT RightElbow
			{
				OFFSET 0.00 -0.1475 0.00
				CHANNELS 2 Zrotation Yrotation
				JOINT RightWrist
				{
					OFFSET 0.00 -0.1605 0.00
					CHANNELS 2 Zrotation Xrotation
					End Site
					{
						OFFSET 0.0040 -0.1068 0.0006
					}
				}
			}
		}
		JOINT LeftShoulder
		{
			OFFSET 0.0119 0.2289 -0.1181
			CHANNELS 3 Zrotation Xrotation Yrotation
			JOINT LeftElbow
			{
				OFFSET 0.00 -0.1475 0.00
				CHANNELS 2 Zrotation Yrotation
				JOINT LeftWrist
				{
					OFFSET 0.00 -0.1605 0.00
					CHANNELS 2 Zrotation Xrotation
					End Site
					{
						OFFSET 0.0040 -0.1068 -0.0006
					}
				}
			}
		}
	}
	JOINT RightHip
	{
		OFFSET 0.0316 -0.0424 0.0458
		CHANNELS 3 Zrotation Xrotation Yrotation
		JOINT RightKnee
		{
			OFFSET 0.00 -0.2438 0.00
			CHANNELS 1 Zrotation
			JOINT RightAnkle
			{
				OFFSET 0.00 -0.2449 0.00
				CHANNELS 3 Zrotation Xrotation Yrotation
				End Site
				{
					OFFSET 0.1237 -0.0542 0.0051
				}
			}
		}
	}
	JOINT LeftHip
	{
		OFFSET 0.0316 -0.0424 -0.0458
		CHANNELS 3 Zrotation Xrotation Yrotation
		JOINT LeftKnee
		{
			OFFSET 0.00 -0.2438 0.00
			CHANNELS 1 Zrotation
			JOINT LeftAnkle
			{
				OFFSET 0.00 -0.2449 0.00
				CHANNELS 3 Zrotation Xrotation Yrotation
				End Site
				{
					OFFSET 0.1237 -0.0542 -0.0051
				}
			}
		}
	}
}
MOTION
Frames: 14
Frame Time: 0.02
-0.53156 0.56137 0.06752 173.62719 0 -5.60238 -56.06392 -0.3828 45.14972 -73.79103 43.11223 -7.58058 138.4148 -3.44711 51.41849 5.34115 81.88597 -0.5674 0.21931 135.32818 -2.12378 -46.47863 5.34936 -79.78622 -1.08275 -1.80128 5.29577 -4.56569 -3.64436 -18.5616 2.89318 0.30129 6.66325 19.3453 1.32523 9.2735 -27.33036 4.25529 -1.28276 -8.66876
-0.53122 0.56148 0.06669 173.64679 0 -5.63092 -56.06392 -0.59328 44.87961 -73.80509 43.18249 -8.32343 138.42432 -2.74976 51.03436 5.43113 81.86599 -0.55085 -0.03512 135.40171 -1.38009 -46.21095 5.31569 -79.56602 -1.10724 -1.62464 5.34781 -4.45254 -3.61597 -18.62854 2.88697 0.27422 6.59441 19.38782 1.35953 8.94584 -27.35192 4.24749 -1.21403 -8.46758
-0.53092 0.56153 0.06588 173.67392 0 -5.66241 -56.06392 -0.77878 44.65012 -73.79563 43.15 -8.58075 138.53069 -2.50828 51.10617 5.55796 81.82513 -0.53549 -0.31757 135.50173 -0.95947 -46.8773 5.33173 -79.71129 -1.0862 -1.37261 5.39736 -4.34102 -3.60249 -18.70788 2.90961 0.24909 6.52509 19.45049 1.39832 8.62864 -27.42416 4.26598 -1.15278 -8.27571
-0.53062 0.56162 0.06506 173.69589 0 -5.69418 -56.06392 -0.97495 44.21598 -73.7693 42.97873 -9.01501 138.5387 -2.0674 50.96184 5.67989 81.80089 -0.51823 -0.58445 135.53323 -0.38946 -47.07941 5.34259 -79.68397 -1.08625 -1.15887 5.44531 -4.2271 -3.58104 -18.77791 2.91535 0.22309 6.45656 19.5021 1.43625 8.30456 -27.47304 4.27419 -1.08799 -8.07723
-0.53024 0.56168 0.06424 173.72407 0 -5.71872 -56.06391 -1.17441 44.5355 -73.87567 43.56595 -9.63529 138.79348 -1.57859 50.84473 5.74891 81.74798 -0.50591 -0.86338 135.81415 0.19414 -47.41583 5.29633 -79.67189 -1.07909 -0.92897 5.50686 -4.12069 -3.56285 -18.86661 2.93828 0.19754 6.38562 19.56236 1.46835 7.98736 -27.52437 4.27594 -1.02353 -7.8865
-0.53003 0.56177 0.06343 173.74168 0 -5.75895 -56.06391 -1.36076 43.33313 -73.67952 42.5795 -9.75308 138.53825 -1.3131 50.78256 5.9406 81.75008 -0.4842 -1.12437 135.56679 0.65573 -47.71094 5.3755 -79.72188 -1.07835 -0.71466 5.53831 -3.99912 -3.54255 -18.91791 2.93192 0.17138 6.31974 19.60865 1.51382 7.65968 -27.58173 4.29709 -0.96031 -7.68323
-0.53027 0.56198 0.06264 173.72657 0 -5.84465 -56.06392 -1.5191 37.59859 -72.82743 37.0103 -8.59854 137.00056 -1.42986 50.76958 6.4303 81.89825 -0.43245 -1.32236 133.98468 0.96009 -47.61626 5.77955 -79.82122 -1.10627 -0.55987 5.49202 -3.83164 -3.50724 -18.86596 2.83594 0.14245 6.26604 19.61738 1.59701 7.29357 -27.64905 4.36629 -0.89787 -7.43646
-0.53068 0.56222 0.06185 173.70106 0 -5.94563 -56.0639 -1.66469 30.39092 -71.63803 29.90997 -6.96048 134.91634 -1.77431 50.79645 7.04828 82.10335 -0.37199 -1.50245 131.84389 1.13681 -47.4596 6.30889 -79.97505 -1.14368 -0.42367 5.41439 -3.6494 -3.47047 -18.77501 2.70951 0.11287 6.21781 19.61014 1.69327 6.91792 -27.71944 4.45384 -0.83654 -7.17812
-0.53102 0.56245 0.06106 173.68149 0 -6.03782 -56.06393 -1.81469 24.06813 -70.49073 23.68275 -5.53932 132.98574 -2.1019 50.80026 7.62804 82.29036 -0.31811 -1.69503 129.87601 1.29736 -47.36791 6.78254 -80.13023 -1.17681 -0.27999 5.34779 -3.47624 -3.43827 -18.69948 2.59803 0.08394 6.16826 19.60638 1.78245 6.55156 -27.78471 4.53234 -0.77532 -6.92976
-0.5313 0.56267 0.06027 173.65683 0 -6.13777 -56.06392 -1.96959 16.83831 -69.8171 16.70344 -4.0923 131.46489 -2.09964 50.83905 8.12352 82.44742 -0.25319 -1.87034 128.25902 1.73946 -47.15762 7.24669 -80.19925 -1.20545 -0.12929 5.29478 -3.2932 -3.39032 -18.63401 2.48324 0.05364 6.11362 19.61963 1.87662 6.16519 -27.86786 4.61483 -0.71198 -6.66214
-0.53176 0.56293 0.05949 173.64044 0 -6.22529 -56.06385 -2.11167 11.14607 -68.07077 10.92844 -2.61693 128.95167 -2.80747 50.81054 8.82551 82.67613 -0.20919 -2.07685 125.76802 1.59485 -47.16164 7.76754 -80.44153 -1.24966 0.00098 5.20592 -3.12714 -3.37431 -18.53833 2.36727 0.02596 6.07105 19.59295 1.96339 5.81742 -27.91338 4.69292 -0.65297 -6.4313
-0.53271 0.56329 0.05873 173.64775 0 -6.27373 -56.06409 -2.22072 10.06619 -63.50197 8.85407 -0.94781 123.89841 -5.64075 50.56619 10.0641 83.12737 -0.22511 -2.37197 121.0881 -0.36318 -47.81987 8.34971 -81.26841 -1.30716 0.08155 5.02693 -3.01204 -3.44969 -18.36752 2.25953 0.00613 6.05894 19.46356 2.02714 5.58446 -27.85784 4.75506 -0.60799 -6.30937
-0.53386 0.5637 0.05797 173.6642 0 -6.30935 -56.06371 -2.3174 10.57917 -57.8578 8.04494 0.6946 117.8533 -9.14199 50.25319 11.51046 83.64156 -0.26241 -2.69723 115.53296 -2.866 -48.6821 8.9989 -82.24181 -1.386 0.14064 4.81289 -2.91441 -3.5567 -18.16823 2.15085 -0.01114 6.05892 19.29378 2.08291 5.38962 -27.76338 4.81186 -0.56697 -6.22419
-0.53493 0.5641 0.0572 173.67731 0 -6.35149 -56.06389 -2.42059 10.3638 -52.66468 6.65676 2.18387 112.21697 -12.18481 49.98399 12.85774 84.10178 -0.28988 -3.01246 110.31871 -4.96778 -49.41577 9.65625 -83.07032 -1.47248 0.20876 4.61386 -2.8085 -3.64725 -17.98215 2.03972 -0.02985 6.05458 19.13999 2.14187 5.17332 -27.68411 4.87053 -0.52236 -6.11891
